<svg version="1.1" xmlns="http://www.w3.org/2000/svg" xmlns:xlink="http://www.w3.org/1999/xlink" width="100px" height="100px" viewBox="0,0,256,256"><g fill-opacity="0" fill="#dddddd" fill-rule="nonzero" stroke="none" stroke-width="1" stroke-linecap="butt" stroke-linejoin="miter" stroke-miterlimit="10" stroke-dasharray="" stroke-dashoffset="0" font-family="none" font-weight="none" font-size="none" text-anchor="none" style="mix-blend-mode: normal"><path d="M0,256v-256h256v256z" id="bgRectangle"></path></g><g fill="none" fill-rule="nonzero" stroke="none" stroke-width="1" stroke-linecap="butt" stroke-linejoin="miter" stroke-miterlimit="10" stroke-dasharray="" stroke-dashoffset="0" font-family="none" font-weight="none" font-size="none" text-anchor="none" style="mix-blend-mode: normal"><g transform="scale(2.56,2.56)"><path d="M51.99902,95.99707c-2.99023,0 -5.7998,-1.16309 -7.91113,-3.27441l-32.81055,-32.81152c-2.11328,-2.11133 -3.27832,-4.9209 -3.27832,-7.91113c0,-2.98828 1.16406,-5.79785 3.27832,-7.91113l32.80762,-32.81152c2.11426,-2.1123 4.92383,-3.27344 7.91406,-3.27344c2.99121,0 5.80078,1.16211 7.91113,3.27344l32.8125,32.80859c2.11426,2.11426 3.27832,4.9248 3.27832,7.91406c0,2.98828 -1.16406,5.79785 -3.27832,7.91113l-32.81055,32.81152c-2.11328,2.1123 -4.92285,3.27441 -7.91309,3.27441z" fill="#000000" opacity="0.35"></path><path d="M49.99902,93.99707c-2.99023,0 -5.7998,-1.16309 -7.91113,-3.27441l-32.81055,-32.81152c-2.11328,-2.11133 -3.27832,-4.9209 -3.27832,-7.91113c0,-2.98828 1.16406,-5.79785 3.27832,-7.91113l32.80762,-32.81152c2.11426,-2.1123 4.92383,-3.27344 7.91406,-3.27344c2.99121,0 5.80078,1.16211 7.91113,3.27344l32.8125,32.80859c2.11426,2.11426 3.27832,4.9248 3.27832,7.91406c0,2.98828 -1.16406,5.79785 -3.27832,7.91113l-32.81055,32.81152c-2.11328,2.1123 -4.92285,3.27441 -7.91309,3.27441z" fill="#f2f2f2"></path><path d="M13.87266,53.31562l32.81094,32.81094c1.83125,1.83125 4.8,1.83125 6.63281,0l32.81094,-32.81094c1.83125,-1.83125 1.83125,-4.8 0,-6.63281l-32.8125,-32.80938c-1.83125,-1.83125 -4.8,-1.83125 -6.63281,0l-32.80937,32.81094c-1.83125,1.83125 -1.83125,4.8 0,6.63125z" fill="#000000"></path><path d="M49.99902,88.99707c-1.58545,0 -3.16992,-0.60352 -4.37598,-1.80957l-32.81104,-32.81152c-1.16895,-1.16895 -1.81299,-2.72266 -1.81299,-4.37598c0,-1.65332 0.64404,-3.20703 1.81299,-4.37598l32.80957,-32.81152c2.41406,-2.41211 6.34082,-2.41211 8.75391,0l32.8125,32.80957c2.4126,2.41504 2.41211,6.3418 0,8.75391l-32.81104,32.81152c-1.20703,1.20605 -2.79297,1.80957 -4.37793,1.80957zM49.99902,14.00195c-0.81738,0 -1.63428,0.31055 -2.25684,0.93262l-32.80908,32.81055c-1.24316,1.24316 -1.24316,3.2666 0,4.50977l32.81104,32.81152c1.24414,1.24316 3.26807,1.24316 4.51221,-0.00098l32.81055,-32.81055c1.24316,-1.24316 1.24268,-3.26758 -0.00049,-4.51172l-32.81201,-32.80957c-0.62158,-0.62109 -1.43848,-0.93164 -2.25537,-0.93164z" fill="#171140"></path><path d="M49.99976,18.83011l31.17045,31.17154l-31.17154,31.17045l-31.17045,-31.17154z" fill="#f2f2f2"></path><g fill="#000000"><path d="M49.99922,48.4375c-0.86295,0 -1.5625,0.69956 -1.5625,1.5625c0,0.86295 0.69955,1.5625 1.5625,1.5625c0.86294,0 1.5625,-0.69955 1.5625,-1.5625c0,-0.86294 -0.69956,-1.5625 -1.5625,-1.5625zM49.99922,42.1875c-0.86295,0 -1.5625,0.69955 -1.5625,1.5625c0,0.86294 0.69955,1.5625 1.5625,1.5625c0.86294,0 1.5625,-0.69955 1.5625,-1.5625c0,-0.86295 -0.69956,-1.5625 -1.5625,-1.5625zM49.99922,35.9375c-0.86295,0 -1.5625,0.69955 -1.5625,1.5625c0,0.86294 0.69955,1.5625 1.5625,1.5625c0.86294,0 1.5625,-0.69956 1.5625,-1.5625c0,-0.86295 -0.69956,-1.5625 -1.5625,-1.5625zM49.99922,29.6875c-0.86295,0 -1.5625,0.69955 -1.5625,1.5625c0,0.86295 0.69955,1.5625 1.5625,1.5625c0.86294,0 1.5625,-0.69955 1.5625,-1.5625c0,-0.86295 -0.69956,-1.5625 -1.5625,-1.5625zM49.99922,67.1875c-0.86295,0 -1.5625,0.69955 -1.5625,1.5625c0,0.86294 0.69955,1.5625 1.5625,1.5625c0.86294,0 1.5625,-0.69956 1.5625,-1.5625c0,-0.86295 -0.69956,-1.5625 -1.5625,-1.5625zM49.99922,60.9375c-0.86295,0 -1.5625,0.69956 -1.5625,1.5625c0,0.86295 0.69955,1.5625 1.5625,1.5625c0.86294,0 1.5625,-0.69956 1.5625,-1.5625c0,-0.86294 -0.69956,-1.5625 -1.5625,-1.5625zM49.99922,54.6875c-0.86295,0 -1.5625,0.69956 -1.5625,1.5625c0,0.86295 0.69955,1.5625 1.5625,1.5625c0.86294,0 1.5625,-0.69955 1.5625,-1.5625c0,-0.86294 -0.69956,-1.5625 -1.5625,-1.5625zM56.24922,48.4375c-0.86295,0 -1.5625,0.69956 -1.5625,1.5625c0,0.86295 0.69955,1.5625 1.5625,1.5625c0.86294,0 1.5625,-0.69955 1.5625,-1.5625c0,-0.86294 -0.69956,-1.5625 -1.5625,-1.5625zM56.24922,42.1875c-0.86295,0 -1.5625,0.69955 -1.5625,1.5625c0,0.86294 0.69955,1.5625 1.5625,1.5625c0.86294,0 1.5625,-0.69955 1.5625,-1.5625c0,-0.86295 -0.69956,-1.5625 -1.5625,-1.5625zM56.24922,35.9375c-0.86295,0 -1.5625,0.69955 -1.5625,1.5625c0,0.86294 0.69955,1.5625 1.5625,1.5625c0.86294,0 1.5625,-0.69956 1.5625,-1.5625c0,-0.86295 -0.69956,-1.5625 -1.5625,-1.5625zM56.24922,60.9375c-0.86295,0 -1.5625,0.69956 -1.5625,1.5625c0,0.86295 0.69955,1.5625 1.5625,1.5625c0.86294,0 1.5625,-0.69956 1.5625,-1.5625c0,-0.86294 -0.69956,-1.5625 -1.5625,-1.5625zM56.24922,54.6875c-0.86295,0 -1.5625,0.69956 -1.5625,1.5625c0,0.86295 0.69955,1.5625 1.5625,1.5625c0.86294,0 1.5625,-0.69955 1.5625,-1.5625c0,-0.86294 -0.69956,-1.5625 -1.5625,-1.5625zM43.74922,48.4375c-0.86295,0 -1.5625,0.69956 -1.5625,1.5625c0,0.86295 0.69955,1.5625 1.5625,1.5625c0.86294,0 1.5625,-0.69955 1.5625,-1.5625c0,-0.86294 -0.69956,-1.5625 -1.5625,-1.5625zM43.74922,42.1875c-0.86295,0 -1.5625,0.69955 -1.5625,1.5625c0,0.86294 0.69955,1.5625 1.5625,1.5625c0.86294,0 1.5625,-0.69955 1.5625,-1.5625c0,-0.86295 -0.69956,-1.5625 -1.5625,-1.5625zM43.74922,35.9375c-0.86295,0 -1.5625,0.69955 -1.5625,1.5625c0,0.86294 0.69955,1.5625 1.5625,1.5625c0.86294,0 1.5625,-0.69956 1.5625,-1.5625c0,-0.86295 -0.69956,-1.5625 -1.5625,-1.5625zM43.74922,60.9375c-0.86295,0 -1.5625,0.69956 -1.5625,1.5625c0,0.86295 0.69955,1.5625 1.5625,1.5625c0.86294,0 1.5625,-0.69956 1.5625,-1.5625c0,-0.86294 -0.69956,-1.5625 -1.5625,-1.5625zM43.74922,54.6875c-0.86295,0 -1.5625,0.69956 -1.5625,1.5625c0,0.86295 0.69955,1.5625 1.5625,1.5625c0.86294,0 1.5625,-0.69955 1.5625,-1.5625c0,-0.86294 -0.69956,-1.5625 -1.5625,-1.5625zM62.49922,48.4375c-0.86295,0 -1.5625,0.69956 -1.5625,1.5625c0,0.86295 0.69955,1.5625 1.5625,1.5625c0.86294,0 1.5625,-0.69955 1.5625,-1.5625c0,-0.86294 -0.69955,-1.5625 -1.5625,-1.5625zM68.74921,48.4375c-0.86295,0 -1.5625,0.69956 -1.5625,1.5625c0,0.86295 0.69955,1.5625 1.5625,1.5625c0.86295,0 1.5625,-0.69955 1.5625,-1.5625c0,-0.86294 -0.69955,-1.5625 -1.5625,-1.5625zM31.24922,48.4375c-0.86295,0 -1.5625,0.69956 -1.5625,1.5625c0,0.86295 0.69955,1.5625 1.5625,1.5625c0.86295,0 1.5625,-0.69955 1.5625,-1.5625c0,-0.86294 -0.69955,-1.5625 -1.5625,-1.5625zM62.49922,42.1875c-0.86295,0 -1.5625,0.69955 -1.5625,1.5625c0,0.86294 0.69955,1.5625 1.5625,1.5625c0.86294,0 1.5625,-0.69955 1.5625,-1.5625c0,-0.86295 -0.69955,-1.5625 -1.5625,-1.5625zM62.49922,54.6875c-0.86295,0 -1.5625,0.69956 -1.5625,1.5625c0,0.86295 0.69955,1.5625 1.5625,1.5625c0.86294,0 1.5625,-0.69955 1.5625,-1.5625c0,-0.86294 -0.69955,-1.5625 -1.5625,-1.5625zM37.49922,48.4375c-0.86295,0 -1.5625,0.69956 -1.5625,1.5625c0,0.86295 0.69955,1.5625 1.5625,1.5625c0.86295,0 1.5625,-0.69955 1.5625,-1.5625c0,-0.86294 -0.69955,-1.5625 -1.5625,-1.5625zM37.49922,42.1875c-0.86295,0 -1.5625,0.69955 -1.5625,1.5625c0,0.86294 0.69955,1.5625 1.5625,1.5625c0.86295,0 1.5625,-0.69955 1.5625,-1.5625c0,-0.86295 -0.69955,-1.5625 -1.5625,-1.5625zM37.49922,54.6875c-0.86295,0 -1.5625,0.69956 -1.5625,1.5625c0,0.86295 0.69955,1.5625 1.5625,1.5625c0.86295,0 1.5625,-0.69955 1.5625,-1.5625c0,-0.86294 -0.69955,-1.5625 -1.5625,-1.5625z"></path></g></g></g></svg>